<?xml version="1.0" encoding="utf-8"?>
<svg width="900px" height="300px" viewBox="0 0 900 300" version="1.1" xmlns:xlink="http://www.w3.org/1999/xlink" xmlns="http://www.w3.org/2000/svg">
  <defs>
    <linearGradient gradientUnits="userSpaceOnUse" x1="0" y1="0" x2="900" y2="300" id="gradient_1">
      <stop offset="0%" stop-color="#002A3A" />
      <stop offset="100%" stop-color="#060D19" />
    </linearGradient>
    <path d="M0 0L900 0L900 300L0 300L0 0Z" id="path_1" />
    <path d="M0 0L362 0L362 60.6732L0 60.6732L0 0Z" id="path_2" />
    <clipPath id="clip_1">
      <use xlink:href="#path_1" />
    </clipPath>
    <clipPath id="clip_2">
      <use xlink:href="#path_2" />
    </clipPath>
  </defs>
  <g id="Frame" clip-path="url(#clip_1)">
    <path d="M0 0L900 0L900 300L0 300L0 0Z" id="Frame" fill="#FFA52A" fill-rule="evenodd" stroke="none" />
    <path d="M0 0L900 0L900 300L0 300L0 0Z" id="Rectangle" fill="url(#gradient_1)" fill-rule="evenodd" stroke="none" />
    <g id="Untitled" clip-path="url(#clip_2)" transform="translate(269.41345 105.85431)">
      <path d="M0 0L362 0L362 60.6732L0 60.6732L0 0Z" id="Untitled" fill="none" fill-rule="evenodd" stroke="none" />
      <path d="M13.8218 11.0915L13.8218 26.8757L41.4653 26.8757L41.4653 37.967L13.8218 37.967L13.8218 59.7234L0.000264514 59.7234L0.000264514 0.000155597L45.1337 0.000155597L45.1337 11.0915L13.8218 11.0915L13.8218 11.0915Z" id="Group" fill="#FFFFFF" stroke="none" />
      <path d="M48.9691 36.7715C48.9691 33.3586 49.5949 30.2019 50.8461 27.3011C52.0977 24.4002 53.8467 21.8977 56.0933 19.7929C58.3402 17.6884 61.0133 16.0532 64.1132 14.8872C67.2133 13.7213 70.5834 13.1383 74.2235 13.1383C77.8639 13.1383 81.2199 13.7213 84.2913 14.8872C87.3628 16.0532 90.0218 17.6884 92.2687 19.7929C94.5153 21.8977 96.2643 24.4002 97.5159 27.3011C98.7671 30.2019 99.3925 33.3586 99.3925 36.7715C99.3925 40.1844 98.7671 43.3411 97.5159 46.242C96.2643 49.1428 94.5153 51.6453 92.2687 53.7501C90.0218 55.8546 87.3628 57.4899 84.2913 58.6558C81.2199 59.8218 77.8639 60.4046 74.2235 60.4046C70.5834 60.4046 67.2133 59.8218 64.1132 58.6558C61.0133 57.4899 58.3402 55.8546 56.0933 53.7501C53.8467 51.6453 52.0977 49.1428 50.8461 46.242C49.5949 43.3411 48.9691 40.1844 48.9691 36.7715L48.9691 36.7715ZM85.9113 36.7706C85.9113 34.8367 85.6268 33.0877 85.0582 31.5235C84.4892 29.9592 83.6788 28.6226 82.6265 27.5135C81.5743 26.4044 80.3371 25.5512 78.915 24.9539C77.4931 24.3568 75.9288 24.0581 74.2224 24.0581C72.5163 24.0581 70.9379 24.3568 69.4873 24.9539C68.037 25.5512 66.7999 26.4044 65.776 27.5135C64.7522 28.6226 63.9415 29.9592 63.3444 31.5235C62.7471 33.0877 62.4484 34.8367 62.4484 36.7706C62.4484 38.7045 62.7471 40.4534 63.3444 42.0177C63.9415 43.5821 64.7522 44.9186 65.776 46.0277C66.7999 47.1368 68.037 47.99 69.4873 48.5874C70.9379 49.1844 72.5163 49.483 74.2224 49.483C75.9288 49.483 77.4931 49.1844 78.915 48.5874C80.3371 47.99 81.5743 47.1368 82.6265 46.0277C83.6788 44.9186 84.4892 43.5821 85.0582 42.0177C85.6268 40.4534 85.9113 38.7045 85.9113 36.7706L85.9113 36.7706Z" id="Group" fill="#FFFFFF" fill-rule="evenodd" stroke="none" />
      <path d="M103.825 55.4563L108.262 45.9005C110.309 47.209 112.783 48.2752 115.684 49.1C118.585 49.9249 121.429 50.3372 124.216 50.3372C129.847 50.3372 132.663 48.9438 132.663 46.1567C132.663 44.8483 131.909 43.9098 130.402 43.3411C128.894 42.7722 126.52 42.2889 123.278 41.8906C121.4 41.6063 119.694 41.3076 118.159 40.9949C116.623 40.6821 115.229 40.3266 113.978 39.9282C112.783 39.5871 111.632 39.0894 110.522 38.4352C109.413 37.7812 108.446 36.9706 107.621 36.0036C106.797 35.0366 106.143 33.8848 105.659 32.5482C105.176 31.2117 104.934 29.6901 104.934 27.9837C104.934 25.8224 105.418 23.8316 106.384 22.0114C107.351 20.1913 108.745 18.6269 110.565 17.3188C112.385 16.0104 114.603 14.9866 117.22 14.2474C119.836 13.5079 122.823 13.1383 126.178 13.1383C129.421 13.1383 132.648 13.4935 135.862 14.2046C139.076 14.9157 141.735 15.8967 143.839 17.1482L139.403 26.6184C135.421 24.3433 131.013 23.2058 126.178 23.2058C123.278 23.2058 121.13 23.6038 119.737 24.4002C118.343 25.1966 117.646 26.2204 117.646 27.4717C117.646 28.8938 118.4 29.8892 119.907 30.4578C121.415 31.0267 123.875 31.5672 127.288 32.0789C131.042 32.7047 134.113 33.387 136.502 34.1266C138.891 34.8092 140.967 36.0889 142.73 37.9659C144.494 39.8429 145.375 42.4595 145.375 45.8152C145.375 47.9768 144.878 49.9532 143.882 51.745C142.887 53.5367 141.465 55.0723 139.616 56.3523C137.768 57.632 135.507 58.6273 132.833 59.3384C130.16 60.0495 127.117 60.4046 123.704 60.4046C121.827 60.4046 119.936 60.277 118.03 60.021C116.125 59.7649 114.305 59.4237 112.57 58.997C110.835 58.5705 109.214 58.0444 107.707 57.4186C106.2 56.7931 104.905 56.1389 103.825 55.4563L103.825 55.4563Z" id="Group" fill="#FFFFFF" stroke="none" />
      <path d="M149.125 55.4563L153.562 45.9005C155.61 47.209 158.084 48.2752 160.985 49.1C163.885 49.9249 166.73 50.3372 169.517 50.3372C175.148 50.3372 177.963 48.9438 177.963 46.1567C177.963 44.8483 177.209 43.9098 175.702 43.3411C174.195 42.7722 171.82 42.2889 168.578 41.8906C166.701 41.6063 164.995 41.3076 163.459 40.9949C161.923 40.6821 160.53 40.3266 159.278 39.9282C158.084 39.5871 156.932 39.0894 155.823 38.4352C154.714 37.7812 153.747 36.9706 152.922 36.0036C152.097 35.0366 151.443 33.8848 150.96 32.5482C150.476 31.2117 150.235 29.6901 150.235 27.9837C150.235 25.8224 150.718 23.8316 151.685 22.0114C152.652 20.1913 154.046 18.6269 155.866 17.3188C157.686 16.0104 159.904 14.9866 162.521 14.2474C165.137 13.5079 168.123 13.1383 171.479 13.1383C174.721 13.1383 177.949 13.4935 181.163 14.2046C184.376 14.9157 187.036 15.8967 189.14 17.1482L184.704 26.6184C180.722 24.3433 176.314 23.2058 171.479 23.2058C168.578 23.2058 166.431 23.6038 165.037 24.4002C163.644 25.1966 162.947 26.2204 162.947 27.4717C162.947 28.8938 163.701 29.8892 165.208 30.4578C166.716 31.0267 169.176 31.5672 172.588 32.0789C176.342 32.7047 179.413 33.387 181.803 34.1266C184.192 34.8092 186.268 36.0889 188.031 37.9659C189.794 39.8429 190.676 42.4595 190.676 45.8152C190.676 47.9768 190.178 49.9532 189.183 51.745C188.188 53.5367 186.765 55.0723 184.917 56.3523C183.068 57.632 180.807 58.6273 178.134 59.3384C175.461 60.0495 172.418 60.4046 169.005 60.4046C167.128 60.4046 165.237 60.277 163.331 60.021C161.426 59.7649 159.605 59.4237 157.871 58.997C156.136 58.5705 154.515 58.0444 153.007 57.4186C151.5 56.7931 150.206 56.1389 149.125 55.4563L149.125 55.4563Z" id="Group" fill="#FFFFFF" stroke="none" />
      <path d="M245.446 13.8206L245.446 59.7224L232.736 59.7224L232.736 54.4325C229.435 58.4139 224.657 60.4046 218.401 60.4046C214.078 60.4046 210.167 59.4378 206.669 57.5039C203.171 55.57 200.427 52.8116 198.436 49.2281C196.445 45.6446 195.45 41.4925 195.45 36.7715C195.45 32.0505 196.445 27.8984 198.436 24.3149C200.427 20.7314 203.171 17.973 206.669 16.0391C210.167 14.1052 214.078 13.1383 218.401 13.1383C224.259 13.1383 228.838 14.9866 232.137 18.6838L232.137 13.8206L245.446 13.8206L245.446 13.8206ZM220.703 49.483C224.059 49.483 226.846 48.3312 229.064 46.0277C231.283 43.7242 232.39 40.6384 232.39 36.7706C232.39 32.9028 231.283 29.817 229.064 27.5135C226.846 25.2101 224.059 24.0581 220.703 24.0581C217.29 24.0581 214.475 25.2101 212.257 27.5135C210.038 29.817 208.929 32.9028 208.929 36.7706C208.929 40.6384 210.038 43.7242 212.257 46.0277C214.475 48.3312 217.29 49.483 220.703 49.483L220.703 49.483Z" id="Group" fill="#FFFFFF" fill-rule="evenodd" stroke="none" />
      <path d="M322.143 46.9254L294.412 46.9254L289.124 59.7234L274.959 59.7234L301.58 0.000155597L315.233 0.000155597L341.936 59.7234L327.431 59.7234L322.143 46.9254L322.143 46.9254ZM308.147 13.9912L298.848 36.4303L317.789 36.4303L308.488 13.9912L308.147 13.9912L308.147 13.9912Z" id="Group" fill="#FFFFFF" fill-rule="evenodd" stroke="none" />
      <path d="M348.158 0.000155597L361.98 0.000155597L361.98 59.7234L348.158 59.7234L348.158 0.000155597Z" id="Group" fill="#FFFFFF" fill-rule="evenodd" stroke="none" />
    </g>
    <g id="Your-Personal-Offline-AI-Assistant" fill="#FFFFFF" transform="translate(249 185)">
      <path d="M201.435 9.00568L201.435 7.72727L199.236 7.72727L199.236 6.73011Q199.236 6.00142 199.565 5.62429Q199.894 5.24716 200.642 5.24716Q200.968 5.24716 201.169 5.30469Q201.371 5.36222 201.486 5.40057L201.92 4.09659Q201.748 4.01989 201.396 3.9304Q201.045 3.84091 200.489 3.84091Q199.786 3.84091 199.153 4.12216Q198.52 4.40341 198.124 4.96591Q197.727 5.52841 197.727 6.37216L197.727 7.72727L196.142 7.72727L196.142 9.00568L197.727 9.00568L197.727 17.5455L199.236 17.5455L199.236 9.00568L201.435 9.00568ZM207.929 7.72727L207.929 9.00568L205.73 9.00568L205.73 17.5455L204.222 17.5455L204.222 9.00568L202.636 9.00568L202.636 7.72727L204.222 7.72727L204.222 6.37216Q204.222 5.52841 204.618 4.96591Q205.014 4.40341 205.647 4.12216Q206.28 3.84091 206.983 3.84091Q207.539 3.84091 207.891 3.9304Q208.242 4.01989 208.415 4.09659L207.98 5.40057Q207.865 5.36222 207.664 5.30469Q207.462 5.24716 207.136 5.24716Q206.388 5.24716 206.059 5.62429Q205.73 6.00142 205.73 6.73011L205.73 7.72727L207.929 7.72727ZM215.088 6.09091Q214.647 6.09091 214.331 5.79048Q214.014 5.49006 214.014 5.06818Q214.014 4.64631 214.331 4.34588Q214.647 4.04546 215.088 4.04545Q215.529 4.04545 215.846 4.34588Q216.162 4.64631 216.162 5.06818Q216.162 5.49006 215.846 5.79048Q215.529 6.09091 215.088 6.09091ZM298.415 6.09091Q297.974 6.09091 297.657 5.79048Q297.341 5.49006 297.341 5.06818Q297.341 4.64631 297.657 4.34588Q297.974 4.04546 298.415 4.04545Q298.856 4.04545 299.172 4.34588Q299.489 4.64631 299.489 5.06818Q299.489 5.49006 299.172 5.79048Q298.856 6.09091 298.415 6.09091ZM194.608 11Q194.608 13.071 193.86 14.5795Q193.112 16.0881 191.808 16.9063Q190.504 17.7244 188.83 17.7244Q187.155 17.7244 185.851 16.9063Q184.547 16.0881 183.799 14.5795Q183.051 13.071 183.051 11Q183.051 8.92898 183.799 7.42045Q184.547 5.91193 185.851 5.09375Q187.155 4.27557 188.83 4.27557Q190.504 4.27557 191.808 5.09375Q193.112 5.91193 193.86 7.42045Q194.608 8.92898 194.608 11ZM60.554 4.45454L58.7386 4.45454L63.4688 12.1506L63.4688 17.5455L65.054 17.5455L65.054 12.1506L69.7841 4.45454L67.9688 4.45454L64.3381 10.5653L64.1847 10.5653L60.554 4.45454ZM104.787 17.5455L104.787 4.45454L109.21 4.45454Q110.751 4.45454 111.732 5.00746Q112.713 5.56037 113.186 6.5Q113.659 7.43963 113.659 8.59659Q113.659 9.75355 113.189 10.6996Q112.719 11.6456 111.741 12.2049Q110.763 12.7642 109.236 12.7642L106.372 12.7642L106.372 17.5455L104.787 17.5455ZM175.534 17.5455L175.534 4.45454L174.026 4.45454L174.026 17.5455L175.534 17.5455ZM210.051 17.5455L211.56 17.5455L211.56 4.45454L210.051 4.45454L210.051 17.5455ZM243.75 17.5455L245.412 17.5455L246.729 13.8381L252.021 13.8381L253.338 17.5455L255 17.5455L250.193 4.45454L248.557 4.45454L243.75 17.5455ZM258.631 17.5455L257.045 17.5455L257.045 4.45454L258.631 4.45454L258.631 17.5455ZM265.739 17.5455L267.401 17.5455L268.717 13.8381L274.01 13.8381L275.327 17.5455L276.989 17.5455L272.182 4.45454L270.545 4.45454L265.739 17.5455ZM315.597 7.72727L315.597 9.00568L313.5 9.00568L313.5 14.733Q313.5 15.3722 313.689 15.6886Q313.877 16.005 314.174 16.1104Q314.472 16.2159 314.804 16.2159Q315.053 16.2159 315.213 16.1871Q315.373 16.1584 315.469 16.1392L315.776 17.4943Q315.622 17.5518 315.347 17.6126Q315.072 17.6733 314.651 17.6733Q314.011 17.6733 313.401 17.3984Q312.79 17.1236 312.391 16.5611Q311.991 15.9986 311.991 15.142L311.991 9.00568L310.508 9.00568L310.508 7.72727L311.991 7.72727L311.991 5.375L313.5 5.375L313.5 7.72727L315.597 7.72727ZM342.827 9.00568L342.827 7.72727L340.73 7.72727L340.73 5.375L339.222 5.375L339.222 7.72727L337.739 7.72727L337.739 9.00568L339.222 9.00568L339.222 15.142Q339.222 15.9986 339.621 16.5611Q340.021 17.1236 340.631 17.3984Q341.241 17.6733 341.881 17.6733Q342.303 17.6733 342.577 17.6126Q342.852 17.5518 343.006 17.4943L342.699 16.1392Q342.603 16.1584 342.443 16.1871Q342.283 16.2159 342.034 16.2159Q341.702 16.2159 341.404 16.1104Q341.107 16.005 340.919 15.6886Q340.73 15.3722 340.73 14.733L340.73 9.00568L342.827 9.00568ZM193.074 11Q193.074 9.29972 192.508 8.12997Q191.942 6.96023 190.98 6.35937Q190.018 5.75852 188.83 5.75852Q187.641 5.75852 186.679 6.35937Q185.717 6.96023 185.151 8.12997Q184.585 9.29972 184.585 11Q184.585 12.7003 185.151 13.87Q185.717 15.0398 186.679 15.6406Q187.641 16.2415 188.83 16.2415Q190.018 16.2415 190.98 15.6406Q191.942 15.0398 192.508 13.87Q193.074 12.7003 193.074 11ZM106.372 11.358L109.185 11.358Q110.763 11.358 111.431 10.5653Q112.099 9.77273 112.099 8.59659Q112.099 7.41406 111.428 6.63743Q110.757 5.86079 109.159 5.86079L106.372 5.86079L106.372 11.358ZM251.523 12.4318L247.227 12.4318L249.324 6.52557L249.426 6.52557L251.523 12.4318ZM273.511 12.4318L269.216 12.4318L271.312 6.52557L271.415 6.52557L273.511 12.4318ZM92.821 7.72727L92.821 17.5455L94.3295 17.5455L94.3295 11.3324Q94.3295 10.3352 95.0327 9.68324Q95.7358 9.03125 96.8097 9.03125Q97.1101 9.03125 97.3817 9.0728Q97.6534 9.11435 97.7301 9.13352L97.7301 7.59943Q97.6023 7.58665 97.353 7.58025Q97.1037 7.57386 96.9375 7.57386Q96.0554 7.57386 95.3523 8.0277Q94.6491 8.48153 94.3807 9.21023L94.2784 9.21023L94.2784 7.72727L92.821 7.72727ZM126.494 17.5455L126.494 7.72727L127.952 7.72727L127.952 9.21023L128.054 9.21023Q128.322 8.48153 129.026 8.0277Q129.729 7.57386 130.611 7.57386Q130.777 7.57386 131.026 7.58025Q131.276 7.58665 131.403 7.59943L131.403 9.13352Q131.327 9.11435 131.055 9.0728Q130.783 9.03125 130.483 9.03125Q129.409 9.03125 128.706 9.68324Q128.003 10.3352 128.003 11.3324L128.003 17.5455L126.494 17.5455ZM73.2837 17.1172Q74.2841 17.75 75.6136 17.75Q76.9432 17.75 77.9435 17.1172Q78.9439 16.4844 79.5032 15.3466Q80.0625 14.2088 80.0625 12.6875Q80.0625 11.1534 79.5032 10.0092Q78.9439 8.86506 77.9435 8.23224Q76.9432 7.59943 75.6136 7.59943Q74.2841 7.59943 73.2837 8.23224Q72.2834 8.86506 71.7241 10.0092Q71.1648 11.1534 71.1648 12.6875Q71.1648 14.2088 71.7241 15.3466Q72.2834 16.4844 73.2837 17.1172ZM117.683 17.1204Q118.709 17.75 120.128 17.75Q121.624 17.75 122.659 17.0661Q123.695 16.3821 124.04 15.2699L122.582 14.8608Q122.295 15.6278 121.656 16.0114Q121.016 16.3949 120.128 16.3949Q118.798 16.3949 117.958 15.5575Q117.117 14.7202 117.066 13.1477L124.193 13.1477L124.193 12.5085Q124.193 11.1342 123.829 10.1946Q123.464 9.25497 122.851 8.68288Q122.237 8.11079 121.489 7.85511Q120.741 7.59943 119.974 7.59943Q118.645 7.59943 117.651 8.24822Q116.657 8.89702 116.104 10.0508Q115.551 11.2045 115.551 12.7131Q115.551 14.2216 116.104 15.3562Q116.657 16.4908 117.683 17.1204ZM138.793 10.3097L140.148 9.92614Q139.796 8.87784 138.962 8.23864Q138.128 7.59943 136.67 7.59943Q135.635 7.59943 134.82 7.96378Q134.005 8.32812 133.535 8.96733Q133.065 9.60653 133.065 10.4375Q133.065 11.4538 133.695 12.1282Q134.325 12.8026 135.673 13.1222L137.31 13.5057Q138.767 13.8445 138.767 14.8864Q138.767 15.5192 138.144 15.9698Q137.521 16.4205 136.466 16.4205Q134.593 16.4205 134.19 14.8352L132.759 15.1932Q133.021 16.446 134.005 17.098Q134.989 17.75 136.491 17.75Q137.636 17.75 138.499 17.3665Q139.362 16.983 139.844 16.3182Q140.327 15.6534 140.327 14.8097Q140.327 12.7898 137.719 12.1506L136.261 11.7926Q135.392 11.5753 134.983 11.2493Q134.574 10.9233 134.574 10.3608Q134.574 9.72798 135.172 9.3157Q135.769 8.90341 136.67 8.90341Q137.661 8.90341 138.128 9.35085Q138.594 9.7983 138.793 10.3097ZM146.591 17.75Q145.261 17.75 144.261 17.1172Q143.261 16.4844 142.701 15.3466Q142.142 14.2088 142.142 12.6875Q142.142 11.1534 142.701 10.0092Q143.261 8.86506 144.261 8.23224Q145.261 7.59943 146.591 7.59943Q147.92 7.59943 148.921 8.23224Q149.921 8.86506 150.48 10.0092Q151.04 11.1534 151.04 12.6875Q151.04 14.2088 150.48 15.3466Q149.921 16.4844 148.921 17.1172Q147.92 17.75 146.591 17.75ZM154.849 17.5455L154.849 11.6392Q154.849 10.3544 155.562 9.65447Q156.275 8.95454 157.355 8.95454Q158.403 8.95454 159.004 9.60334Q159.605 10.2521 159.605 11.4091L159.605 17.5455L161.114 17.5455L161.114 11.3068Q161.114 9.42756 160.196 8.51349Q159.279 7.59943 157.79 7.59943Q156.678 7.59943 155.974 8.05646Q155.271 8.51349 154.926 9.26136L154.798 9.26136L154.798 7.72727L153.341 7.72727L153.341 17.5455L154.849 17.5455ZM166.764 17.7756Q165.831 17.7756 165.07 17.4208Q164.31 17.0661 163.862 16.3917Q163.415 15.7173 163.415 14.7585Q163.415 13.9148 163.747 13.3874Q164.08 12.8601 164.636 12.5597Q165.192 12.2592 165.866 12.109Q166.54 11.9588 167.224 11.8693Q168.119 11.7543 168.679 11.6935Q169.238 11.6328 169.497 11.4858Q169.756 11.3388 169.756 10.9744L169.756 10.9233Q169.756 9.97727 169.241 9.45312Q168.727 8.92898 167.685 8.92898Q166.604 8.92898 165.991 9.40199Q165.377 9.875 165.128 10.4119L163.696 9.90057Q164.08 9.00568 164.722 8.50391Q165.364 8.00213 166.128 7.80078Q166.892 7.59943 167.634 7.59943Q168.107 7.59943 168.723 7.71129Q169.34 7.82315 169.919 8.16832Q170.497 8.51349 170.881 9.21023Q171.264 9.90696 171.264 11.0767L171.264 17.5455L169.756 17.5455L169.756 16.2159L169.679 16.2159Q169.526 16.5355 169.168 16.8999Q168.81 17.2642 168.215 17.5199Q167.621 17.7756 166.764 17.7756ZM220.099 17.5455L220.099 11.6392Q220.099 10.3544 220.812 9.65447Q221.525 8.95454 222.605 8.95454Q223.653 8.95454 224.254 9.60334Q224.855 10.2521 224.855 11.4091L224.855 17.5455L226.364 17.5455L226.364 11.3068Q226.364 9.42756 225.446 8.51349Q224.529 7.59943 223.04 7.59943Q221.928 7.59943 221.224 8.05646Q220.521 8.51349 220.176 9.26136L220.048 9.26136L220.048 7.72727L218.591 7.72727L218.591 17.5455L220.099 17.5455ZM233.241 17.75Q231.822 17.75 230.797 17.1204Q229.771 16.4908 229.218 15.3562Q228.665 14.2216 228.665 12.7131Q228.665 11.2045 229.218 10.0508Q229.771 8.89702 230.765 8.24822Q231.759 7.59943 233.088 7.59943Q233.855 7.59943 234.603 7.85511Q235.351 8.11079 235.964 8.68288Q236.578 9.25497 236.942 10.1946Q237.307 11.1342 237.307 12.5085L237.307 13.1477L230.18 13.1477Q230.231 14.7202 231.071 15.5575Q231.912 16.3949 233.241 16.3949Q234.13 16.3949 234.769 16.0114Q235.408 15.6278 235.696 14.8608L237.153 15.2699Q236.808 16.3821 235.773 17.0661Q234.737 17.75 233.241 17.75ZM285.784 9.92614L284.429 10.3097Q284.231 9.7983 283.764 9.35085Q283.298 8.90341 282.307 8.90341Q281.406 8.90341 280.808 9.3157Q280.21 9.72798 280.21 10.3608Q280.21 10.9233 280.619 11.2493Q281.028 11.5753 281.898 11.7926L283.355 12.1506Q285.963 12.7898 285.963 14.8097Q285.963 15.6534 285.48 16.3182Q284.998 16.983 284.135 17.3665Q283.272 17.75 282.128 17.75Q280.626 17.75 279.641 17.098Q278.657 16.446 278.395 15.1932L279.827 14.8352Q280.229 16.4205 282.102 16.4205Q283.157 16.4205 283.78 15.9698Q284.403 15.5192 284.403 14.8864Q284.403 13.8445 282.946 13.5057L281.31 13.1222Q279.961 12.8026 279.331 12.1282Q278.702 11.4538 278.702 10.4375Q278.702 9.60653 279.172 8.96733Q279.641 8.32812 280.456 7.96378Q281.271 7.59943 282.307 7.59943Q283.764 7.59943 284.598 8.23864Q285.433 8.87784 285.784 9.92614ZM293.838 10.3097L295.193 9.92614Q294.842 8.87784 294.007 8.23864Q293.173 7.59943 291.716 7.59943Q290.68 7.59943 289.865 7.96378Q289.05 8.32812 288.581 8.96733Q288.111 9.60653 288.111 10.4375Q288.111 11.4538 288.74 12.1282Q289.37 12.8026 290.719 13.1222L292.355 13.5057Q293.813 13.8445 293.813 14.8864Q293.813 15.5192 293.189 15.9698Q292.566 16.4205 291.511 16.4205Q289.638 16.4205 289.236 14.8352L287.804 15.1932Q288.066 16.446 289.05 17.098Q290.035 17.75 291.537 17.75Q292.681 17.75 293.544 17.3665Q294.407 16.983 294.89 16.3182Q295.372 15.6534 295.372 14.8097Q295.372 12.7898 292.764 12.1506L291.307 11.7926Q290.438 11.5753 290.028 11.2493Q289.619 10.9233 289.619 10.3608Q289.619 9.72798 290.217 9.3157Q290.815 8.90341 291.716 8.90341Q292.707 8.90341 293.173 9.35085Q293.64 9.7983 293.838 10.3097ZM307.517 10.3097L308.872 9.92614Q308.521 8.87784 307.686 8.23864Q306.852 7.59943 305.395 7.59943Q304.359 7.59943 303.544 7.96378Q302.729 8.32812 302.26 8.96733Q301.79 9.60653 301.79 10.4375Q301.79 11.4538 302.419 12.1282Q303.049 12.8026 304.398 13.1222L306.034 13.5057Q307.491 13.8445 307.491 14.8864Q307.491 15.5192 306.868 15.9698Q306.245 16.4205 305.19 16.4205Q303.317 16.4205 302.915 14.8352L301.483 15.1932Q301.745 16.446 302.729 17.098Q303.714 17.75 305.216 17.75Q306.36 17.75 307.223 17.3665Q308.086 16.983 308.569 16.3182Q309.051 15.6534 309.051 14.8097Q309.051 12.7898 306.443 12.1506L304.986 11.7926Q304.116 11.5753 303.707 11.2493Q303.298 10.9233 303.298 10.3608Q303.298 9.72798 303.896 9.3157Q304.494 8.90341 305.395 8.90341Q306.386 8.90341 306.852 9.35085Q307.319 9.7983 307.517 10.3097ZM319.067 17.4208Q319.828 17.7756 320.761 17.7756Q321.618 17.7756 322.212 17.5199Q322.807 17.2642 323.165 16.8999Q323.523 16.5355 323.676 16.2159L323.753 16.2159L323.753 17.5455L325.261 17.5455L325.261 11.0767Q325.261 9.90696 324.878 9.21023Q324.494 8.51349 323.916 8.16832Q323.337 7.82315 322.72 7.71129Q322.104 7.59943 321.631 7.59943Q320.889 7.59943 320.125 7.80078Q319.361 8.00213 318.719 8.50391Q318.077 9.00568 317.693 9.90057L319.125 10.4119Q319.374 9.875 319.988 9.40199Q320.602 8.92898 321.682 8.92898Q322.724 8.92898 323.238 9.45312Q323.753 9.97727 323.753 10.9233L323.753 10.9744Q323.753 11.3388 323.494 11.4858Q323.235 11.6328 322.676 11.6935Q322.116 11.7543 321.222 11.8693Q320.538 11.9588 319.863 12.109Q319.189 12.2592 318.633 12.5597Q318.077 12.8601 317.744 13.3874Q317.412 13.9148 317.412 14.7585Q317.412 15.7173 317.859 16.3917Q318.307 17.0661 319.067 17.4208ZM329.531 11.6392L329.531 17.5455L328.023 17.5455L328.023 7.72727L329.48 7.72727L329.48 9.26136L329.608 9.26136Q329.953 8.51349 330.656 8.05646Q331.359 7.59943 332.472 7.59943Q333.961 7.59943 334.878 8.51349Q335.795 9.42756 335.795 11.3068L335.795 17.5455L334.287 17.5455L334.287 11.4091Q334.287 10.2521 333.686 9.60334Q333.085 8.95454 332.037 8.95454Q330.957 8.95454 330.244 9.65447Q329.531 10.3544 329.531 11.6392ZM88.5511 13.5312L88.5511 7.72727L90.0597 7.72727L90.0597 17.5455L88.5511 17.5455L88.5511 15.8835L88.4489 15.8835Q88.1037 16.6314 87.375 17.1523Q86.6463 17.6733 85.5341 17.6733Q84.1534 17.6733 83.2585 16.7592Q82.3636 15.8452 82.3636 13.9659L82.3636 7.72727L83.8722 7.72727L83.8722 13.8636Q83.8722 14.9375 84.4762 15.5767Q85.0803 16.2159 86.0199 16.2159Q86.5824 16.2159 87.1673 15.9283Q87.7521 15.6406 88.1516 15.0462Q88.5511 14.4517 88.5511 13.5312ZM214.321 17.5455L214.321 7.72727L215.83 7.72727L215.83 17.5455L214.321 17.5455ZM297.648 17.5455L297.648 7.72727L299.156 7.72727L299.156 17.5455L297.648 17.5455ZM77.2756 15.8771Q76.6236 16.3949 75.6136 16.3949Q74.6037 16.3949 73.9517 15.8771Q73.2997 15.3594 72.9865 14.5156Q72.6733 13.6719 72.6733 12.6875Q72.6733 11.7031 72.9865 10.853Q73.2997 10.0028 73.9517 9.47869Q74.6037 8.95454 75.6136 8.95454Q76.6236 8.95454 77.2756 9.47869Q77.9276 10.0028 78.2408 10.853Q78.554 11.7031 78.554 12.6875Q78.554 13.6719 78.2408 14.5156Q77.9276 15.3594 77.2756 15.8771ZM122.659 11.8437L117.066 11.8437Q117.117 11.0831 117.482 10.4215Q117.846 9.75994 118.479 9.35724Q119.112 8.95454 119.974 8.95454Q121.202 8.95454 121.93 9.77592Q122.659 10.5973 122.659 11.8437ZM146.591 16.3949Q147.601 16.3949 148.253 15.8771Q148.905 15.3594 149.218 14.5156Q149.531 13.6719 149.531 12.6875Q149.531 11.7031 149.218 10.853Q148.905 10.0028 148.253 9.47869Q147.601 8.95454 146.591 8.95454Q145.581 8.95454 144.929 9.47869Q144.277 10.0028 143.964 10.853Q143.651 11.7031 143.651 12.6875Q143.651 13.6719 143.964 14.5156Q144.277 15.3594 144.929 15.8771Q145.581 16.3949 146.591 16.3949ZM230.18 11.8437L235.773 11.8437Q235.773 10.5973 235.044 9.77592Q234.315 8.95454 233.088 8.95454Q232.225 8.95454 231.592 9.35724Q230.96 9.75994 230.595 10.4215Q230.231 11.0831 230.18 11.8437ZM166.994 16.4205Q167.889 16.4205 168.506 16.0689Q169.123 15.7173 169.439 15.1612Q169.756 14.6051 169.756 13.9915L169.756 12.6108Q169.66 12.7259 169.337 12.8185Q169.014 12.9112 168.596 12.9783Q168.177 13.0455 167.784 13.0934Q167.391 13.1413 167.148 13.1733Q166.56 13.25 166.051 13.4194Q165.543 13.5888 165.233 13.9244Q164.923 14.2599 164.923 14.8352Q164.923 15.6214 165.508 16.021Q166.093 16.4205 166.994 16.4205ZM322.503 16.0689Q321.886 16.4205 320.991 16.4205Q320.09 16.4205 319.505 16.021Q318.92 15.6214 318.92 14.8352Q318.92 14.2599 319.23 13.9244Q319.54 13.5888 320.049 13.4194Q320.557 13.25 321.145 13.1733Q321.388 13.1413 321.781 13.0934Q322.174 13.0455 322.593 12.9783Q323.011 12.9112 323.334 12.8185Q323.657 12.7259 323.753 12.6108L323.753 13.9915Q323.753 14.6051 323.436 15.1612Q323.12 15.7173 322.503 16.0689Z" />
    </g>
  </g>
</svg>